<svg width="25" height="22" viewBox="0 0 25 22" fill="none" xmlns="http://www.w3.org/2000/svg">
<g id="clarity:edit-line">
<path id="Vector" d="M22.8859 5.76211L19.074 2.31225C18.8221 2.08658 18.4812 1.9599 18.1259 1.9599C17.7705 1.9599 17.4296 2.08658 17.1777 2.31225L3.66389 14.4628L2.43005 19.2575C2.38748 19.4328 2.38894 19.6144 2.43432 19.7891C2.47969 19.9638 2.56784 20.1272 2.69231 20.2673C2.81679 20.4074 2.97445 20.5206 3.15378 20.5989C3.33311 20.6771 3.52958 20.7182 3.72883 20.7193C3.82167 20.7277 3.91523 20.7277 4.00807 20.7193L9.39153 19.6083L22.8859 7.4695C23.1365 7.24269 23.2772 6.93575 23.2772 6.6158C23.2772 6.29585 23.1365 5.98892 22.8859 5.76211ZM8.74214 18.5558L3.69636 19.5089L4.84579 15.0533L14.9568 5.9843L18.8532 9.49264L8.74214 18.5558ZM19.7234 8.64479L15.827 5.13645L18.0869 3.11332L21.9183 6.62165L19.7234 8.64479Z" fill="#F25F4C"/>
</g>
</svg>
