<svg width="24" height="22" viewBox="0 0 24 22" fill="none" xmlns="http://www.w3.org/2000/svg">
<g id="fluent:delete-20-regular">
<path id="Vector" d="M13.6996 5.10722C13.6996 4.68851 13.5149 4.28695 13.1861 3.99087C12.8572 3.6948 12.4113 3.52847 11.9462 3.52847C11.4812 3.52847 11.0352 3.6948 10.7064 3.99087C10.3776 4.28695 10.1929 4.68851 10.1929 5.10722H9.02397C9.02397 4.40937 9.33185 3.7401 9.87989 3.24664C10.4279 2.75319 11.1712 2.47597 11.9462 2.47597C12.7213 2.47597 13.4646 2.75319 14.0126 3.24664C14.5606 3.7401 14.8685 4.40937 14.8685 5.10722H20.1286C20.2836 5.10722 20.4322 5.16266 20.5419 5.26135C20.6515 5.36004 20.713 5.4939 20.713 5.63347C20.713 5.77304 20.6515 5.90689 20.5419 6.00558C20.4322 6.10427 20.2836 6.15972 20.1286 6.15972H19.481L17.9661 17.9793C17.9001 18.4923 17.6271 18.9655 17.1988 19.309C16.7706 19.6525 16.217 19.8423 15.6435 19.8422H8.24899C7.67546 19.8423 7.12192 19.6525 6.69366 19.309C6.26541 18.9655 5.99233 18.4923 5.92637 17.9793L4.4103 6.15972H3.7639C3.6271 6.15976 3.49463 6.11659 3.38954 6.03774C3.28446 5.95889 3.21342 5.84935 3.18879 5.72819L3.17944 5.63347C3.17944 5.4939 3.24102 5.36004 3.35063 5.26135C3.46023 5.16266 3.60889 5.10722 3.7639 5.10722H13.6996ZM18.3027 6.15972H5.58856L7.0871 17.8583C7.12009 18.1148 7.25671 18.3515 7.47096 18.5233C7.68521 18.6951 7.96212 18.7899 8.24899 18.7897H15.6435C15.9302 18.7896 16.2068 18.6947 16.4208 18.5229C16.6348 18.3512 16.7712 18.1147 16.8042 17.8583L18.3027 6.15972ZM10.1929 8.79097C10.4793 8.79097 10.7189 8.95411 10.768 9.16882L10.7773 9.25196V15.6985C10.7773 15.9522 10.5155 16.1585 10.1929 16.1585C9.9065 16.1585 9.66687 15.9953 9.61778 15.7806L9.60843 15.6975V9.25302C9.60843 8.99831 9.87026 8.79202 10.1929 8.79202V8.79097ZM13.6996 8.79097C13.986 8.79097 14.2256 8.95411 14.2747 9.16882L14.2841 9.25196V15.6985C14.2841 15.9522 14.0222 16.1585 13.6996 16.1585C13.4132 16.1585 13.1736 15.9953 13.1245 15.7806L13.1151 15.6975V9.25302C13.1151 8.99831 13.377 8.79202 13.6996 8.79202V8.79097Z" fill="#F25F4C"/>
</g>
</svg>
